<?xml version="1.0" encoding="UTF-8"?>
<svg version="1.1" xmlns="http://www.w3.org/2000/svg" width="1280" height="720">
<path d="M0 0 C422.4 0 844.8 0 1280 0 C1280 237.6 1280 475.2 1280 720 C857.6 720 435.2 720 0 720 C0 482.4 0 244.8 0 0 Z " fill="#FEFEFE" transform="translate(0,0)"/>
<path d="M0 0 C3.92556634 0.94483545 7.34427004 1.23826788 11.1015625 -0.34375 C11.6378125 -0.67375 12.1740625 -1.00375 12.7265625 -1.34375 C12.90574219 -0.43109375 13.08492187 0.4815625 13.26953125 1.421875 C15.20461511 5.71744989 17.91546069 6.66989607 22.0390625 8.40625 C43.68418425 18.41763567 58.41365124 35.99540938 67.40625 57.9609375 C70.50535226 66.63475626 73.03801186 75.37266328 72.7265625 84.65625 C71.7675 83.604375 71.7675 83.604375 70.7890625 82.53125 C64.89462715 76.61992515 58.46453481 72.54872308 50.0390625 72.34375 C45.02074327 72.36805179 41.63578536 73.11071628 37.34765625 75.68359375 C35.7265625 76.65625 35.7265625 76.65625 32.7265625 77.65625 C32.51902344 77.099375 32.31148437 76.5425 32.09765625 75.96875 C29.2480281 68.91025685 25.37522209 61.96072142 18.1640625 58.65625 C12.32868258 56.88725688 5.72844671 56.8783692 -0.2734375 57.65625 C-3.97519581 60.64634895 -4.90333956 64.78373051 -6.3359375 69.15625 C-6.9532945 70.97999264 -7.57322447 72.80286571 -8.1953125 74.625 C-8.69514648 76.09066406 -8.69514648 76.09066406 -9.20507812 77.5859375 C-11.08000686 82.97421532 -13.08824544 88.31253998 -15.0859375 93.65625 C-18.49331323 102.79761229 -21.82628484 111.96120878 -25.0859375 121.15625 C-29.21302858 132.79210151 -33.49151901 144.36676803 -37.81097412 155.93225098 C-41.03250267 164.56118663 -44.21063126 173.1972202 -47.2109375 181.90625 C-49.22047556 187.70556761 -51.26165182 193.48824622 -53.4609375 199.21875 C-53.90824219 200.39566406 -54.35554688 201.57257813 -54.81640625 202.78515625 C-56.33042451 205.76854343 -57.38519028 207.03231333 -60.2734375 208.65625 C-63.2109375 209.15625 -63.2109375 209.15625 -66.2734375 208.65625 C-70.86551801 204.94533314 -72.56703161 201.01429594 -74.2734375 195.53125 C-74.85920102 193.75906281 -75.44943193 191.98834893 -76.04296875 190.21875 C-76.38150879 189.20683594 -76.72004883 188.19492187 -77.06884766 187.15234375 C-79.2969343 180.68574449 -81.69850506 174.28257961 -84.08764648 167.87408447 C-84.94539256 165.57295341 -85.80005671 163.2706962 -86.65429688 160.96826172 C-89.17485565 154.18809031 -91.73192767 147.43171863 -94.44848633 140.72705078 C-95.64141313 137.73255386 -96.71127192 134.69921086 -97.7734375 131.65625 C-99.22149633 127.56005913 -100.70364241 123.49507789 -102.3359375 119.46875 C-109.15579044 102.57221639 -109.15579044 102.57221639 -108.2734375 97.65625 C-105.03603008 95.49797838 -104.03110447 94.92304669 -100.2734375 95.65625 C-96.42314986 100.49176839 -94.49258188 105.83031319 -92.41015625 111.6015625 C-91.87754936 113.04920486 -91.87754936 113.04920486 -91.33418274 114.52609253 C-90.2023797 117.6084966 -89.08167599 120.69480821 -87.9609375 123.78125 C-87.2200906 125.80103431 -86.47855991 127.82056795 -85.73632812 129.83984375 C-81.40114693 141.66217199 -77.18288578 153.52280686 -73.05245972 165.41809082 C-71.71848509 169.25064847 -70.37074595 173.07836366 -69.0234375 176.90625 C-68.77640579 177.60881927 -68.52937408 178.31138855 -68.27485657 179.0352478 C-66.66848059 183.59916211 -64.98331539 188.13010264 -63.2734375 192.65625 C-60.44158799 185.67891375 -57.75175434 178.65925409 -55.1484375 171.59375 C-54.73811279 170.48249756 -54.32778809 169.37124512 -53.9050293 168.22631836 C-52.6620196 164.857218 -51.42072123 161.4874944 -50.17999268 158.11755371 C-49.17523469 155.38962867 -48.16945209 152.6620826 -47.16357422 149.93457031 C-45.20043139 144.61078644 -43.23941998 139.28622087 -41.27960205 133.96121216 C-40.49505426 131.83007194 -39.71003416 129.69910552 -38.92449951 127.56832886 C-35.06969739 117.10954823 -31.24461264 106.64521637 -27.59375 96.11328125 C-25.55262429 90.22601315 -23.44511471 84.37668129 -21.18359375 78.5703125 C-20.70986328 77.3534375 -20.23613281 76.1365625 -19.74804688 74.8828125 C-19.03108753 73.0542191 -18.313871 71.2257125 -17.58862305 69.40039062 C-16.8612608 67.56474611 -16.14723701 65.72383394 -15.43359375 63.8828125 C-15.01730713 62.82658691 -14.60102051 61.77036133 -14.17211914 60.68212891 C-13.22086978 57.47925345 -12.99033992 54.97820467 -13.2734375 51.65625 C-14.78833707 49.52085681 -14.78833707 49.52085681 -16.9609375 47.90625 C-17.98767578 47.04773438 -17.98767578 47.04773438 -19.03515625 46.171875 C-25.84852168 41.55828724 -33.35911675 41.94362578 -41.2734375 42.65625 C-44.4019 43.66117764 -46.48568652 44.85241113 -49.2734375 46.65625 C-50.2634375 47.15125 -50.2634375 47.15125 -51.2734375 47.65625 C-51.55316406 46.85960937 -51.83289063 46.06296875 -52.12109375 45.2421875 C-55.31152802 36.80959273 -58.36898455 32.53151134 -66.05859375 28.0234375 C-69.71429668 26.46876432 -72.31659888 26.2873477 -76.2734375 26.34375 C-78.036875 26.34955078 -78.036875 26.34955078 -79.8359375 26.35546875 C-83.27619387 26.65649118 -86.05887155 27.42628651 -89.2734375 28.65625 C-77.68145332 13.42107079 -59.54663739 4.20063217 -41.2734375 -0.34375 C-40.43296875 -0.56804687 -39.5925 -0.79234375 -38.7265625 -1.0234375 C-26.2645907 -3.84866713 -12.24931496 -3.56583832 0 0 Z " fill="#4C8EB1" transform="translate(532.2734375,218.34375)"/>
<path d="M0 0 C3.83886168 1.50627896 5.34711006 3.24094062 6.95043945 6.90771484 C7.58435061 8.5439216 8.20000492 10.18727631 8.80078125 11.8359375 C9.1392659 12.72300385 9.47775055 13.61007019 9.82649231 14.52401733 C10.5404922 16.40120101 11.24695512 18.28126652 11.9463501 20.16394043 C12.9573501 22.88520127 13.98731891 25.5983495 15.02490234 28.30957031 C17.09926515 33.74051964 19.14520002 39.18192688 21.1875 44.625 C22.66929614 48.57079352 24.1523141 52.51612455 25.63671875 56.4609375 C26.00356781 57.43603271 26.37041687 58.41112793 26.74838257 59.41577148 C29.11092846 65.68130946 31.51709323 71.92829545 33.95703125 78.1640625 C34.56432642 79.72309879 35.17150748 81.28217954 35.77856445 82.84130859 C36.62608058 85.01737877 37.4768392 87.19178967 38.34017944 89.3616333 C43.93608869 103.42651014 43.93608869 103.42651014 44 111 C42 113 42 113 39.5625 113.375 C37 113 37 113 35.49487305 111.33837891 C33.81316301 108.70773727 32.67372394 106.11244647 31.51953125 103.2109375 C31.07802734 102.10492188 30.63652344 100.99890625 30.18164062 99.859375 C29.72982422 98.70953125 29.27800781 97.5596875 28.8125 96.375 C28.34908203 95.21742188 27.88566406 94.05984375 27.40820312 92.8671875 C24 84.27389774 24 84.27389774 24 82 C6.18 82 -11.64 82 -30 82 C-30.33 83.65 -30.66 85.3 -31 87 C-32.33014527 90.92345531 -33.86623609 94.76714799 -35.375 98.625 C-35.77460937 99.67429687 -36.17421875 100.72359375 -36.5859375 101.8046875 C-36.9778125 102.81015625 -37.3696875 103.815625 -37.7734375 104.8515625 C-38.12841309 105.76760254 -38.48338867 106.68364258 -38.84912109 107.62744141 C-39.99801247 109.99590268 -40.91857984 111.40317782 -43 113 C-46.125 113.25 -46.125 113.25 -49 113 C-49.33 112.67 -49.66 112.34 -50 112 C-49.81600331 103.12942277 -46.37913082 95.38755998 -43.1875 87.25 C-42.5757861 85.66745535 -41.96530829 84.08443244 -41.35595703 82.50097656 C-40.35952854 79.91181526 -39.36232177 77.32298224 -38.3614502 74.73553467 C-35.45088047 67.20467952 -32.59949608 59.6523011 -29.76171875 52.09375 C-29.31598007 50.90730896 -28.87024139 49.72086792 -28.41099548 48.49847412 C-26.62351809 43.73986134 -24.83652814 38.9810682 -23.05209351 34.22131348 C-21.79509329 30.87053497 -20.53461826 27.52108186 -19.2734375 24.171875 C-18.90099411 23.1763562 -18.52855072 22.1808374 -18.14482117 21.15515137 C-9.71571731 -1.19315827 -9.71571731 -1.19315827 0 0 Z " fill="#252525" transform="translate(565,314)"/>
<path d="M0 0 C4.48652978 2.06799977 5.90830985 4.06993383 7.71484375 8.609375 C7.95702133 9.20844666 8.19919891 9.80751831 8.44871521 10.42474365 C9.32094285 12.60854446 10.16191081 14.80287294 11 17 C11.51110321 18.32704956 11.51110321 18.32704956 12.03253174 19.6809082 C14.91862335 27.18795616 17.74386785 34.71741896 20.5625 42.25 C22.33830088 46.98886107 24.11575958 51.72709701 25.89453125 56.46484375 C26.33127167 57.62872116 26.76801208 58.79259857 27.21798706 59.991745 C29.82829388 66.93270041 32.48504896 73.85294695 35.19921875 80.75390625 C35.81377535 82.32452289 36.42827952 83.89516004 37.04272461 85.46582031 C38.14532241 88.28223651 39.26427454 91.09136075 40.39282227 93.89746094 C42.84069112 100.09218646 44.70840341 105.27860096 44 112 C40.535 112.495 40.535 112.495 37 113 C34.75942804 109.45551196 33.05871709 105.94090691 31.51953125 102.04296875 C31.12096924 101.04031982 30.72240723 100.0376709 30.31176758 99.00463867 C29.81700928 97.74498291 29.32225098 96.48532715 28.8125 95.1875 C27.224375 91.165625 25.63625 87.14375 24 83 C6.51 83 -10.98 83 -29 83 C-32.53372118 91.74912245 -32.53372118 91.74912245 -36.06005859 100.5012207 C-36.50172363 101.59007568 -36.94338867 102.67893066 -37.3984375 103.80078125 C-37.84880371 104.91622314 -38.29916992 106.03166504 -38.76318359 107.1809082 C-40 110 -40 110 -42 113 C-45 113.3125 -45 113.3125 -48 113 C-48.66 112.34 -49.32 111.68 -50 111 C-49.80128925 104.10189818 -46.83318226 97.89548418 -44.3125 91.5625 C-43.45362048 89.37661884 -42.59555867 87.19041623 -41.73828125 85.00390625 C-41.29323242 83.87130371 -40.84818359 82.73870117 -40.38964844 81.57177734 C-36.37687706 71.25785512 -32.57395267 60.86436182 -28.77046204 50.47187805 C-18.68333566 22.91098388 -18.68333566 22.91098388 -14.375 11.875 C-14.08125488 11.10188477 -13.78750977 10.32876953 -13.48486328 9.53222656 C-10.60233808 2.2863693 -8.09829864 -0.9945279 0 0 Z " fill="#252525" transform="translate(786,314)"/>
<path d="M0 0 C4.85019556 3.34992982 7.1221896 6.40190754 9.09375 11.98046875 C9.49114883 13.0329631 9.49114883 13.0329631 9.89657593 14.10671997 C10.7811602 16.46108578 11.64017336 18.82399199 12.5 21.1875 C13.12592273 22.86616731 13.7537465 24.5441268 14.38330078 26.22143555 C15.79273309 29.98283295 17.19239204 33.74769886 18.58691406 37.51464844 C21.30058525 44.82811876 24.06618733 52.12170511 26.8359375 59.4140625 C27.21037113 60.39990169 27.21037113 60.39990169 27.59236908 61.40565681 C28.60036567 64.05927383 29.6084707 66.71284954 30.61691666 69.36629581 C32.36528263 73.96749121 34.10859353 78.57057956 35.84960938 83.17456055 C36.31630035 84.40778046 36.78299133 85.64100037 37.26382446 86.91159058 C38.14852728 89.24969811 39.03249006 91.58808583 39.9156189 93.92678833 C40.30810822 94.96326508 40.70059753 95.99974182 41.10498047 97.06762695 C41.6200264 98.43006279 41.6200264 98.43006279 42.14547729 99.82002258 C42.96148566 101.9979266 42.96148566 101.9979266 44 104 C44.125 107.5625 44.125 107.5625 44 111 C43 112 43 112 39.9375 112.0625 C38.968125 112.041875 37.99875 112.02125 37 112 C33.89282709 105.9955983 31.24099918 99.90785348 28.75 93.625 C28.38648438 92.72394531 28.02296875 91.82289063 27.6484375 90.89453125 C27.30554688 90.03472656 26.96265625 89.17492187 26.609375 88.2890625 C26.29967773 87.51256348 25.98998047 86.73606445 25.67089844 85.93603516 C25 84 25 84 25 82 C7.18 82.33 -10.64 82.66 -29 83 C-32.49345827 91.74724339 -32.49345827 91.74724339 -35.9699707 100.5012207 C-36.40913818 101.59007568 -36.84830566 102.67893066 -37.30078125 103.80078125 C-37.74591064 104.91622314 -38.19104004 106.03166504 -38.6496582 107.1809082 C-39.88442509 109.75871569 -40.71952201 111.31471473 -43 113 C-46.125 113.25 -46.125 113.25 -49 113 C-49.33 112.67 -49.66 112.34 -50 112 C-49.84098495 102.97589588 -46.24374561 95.02845716 -43 86.75 C-42.37830987 85.14001684 -41.75781414 83.52957202 -41.13842773 81.91870117 C-40.15068394 79.3509794 -39.16187115 76.78370556 -38.16905212 74.21794128 C-35.59092873 67.55492115 -33.05368726 60.87716327 -30.53515625 54.19140625 C-30.16224457 53.20153717 -29.78933289 52.21166809 -29.40512085 51.19180298 C-28.65720368 49.20568968 -27.90945063 47.21951457 -27.16186523 45.23327637 C-24.75963331 38.85106414 -22.35592867 32.4695064 -19.93017578 26.09619141 C-18.62434157 22.66384217 -17.34509234 19.22302736 -16.08154297 15.77490234 C-15.46996484 14.13500226 -14.85815893 12.49518711 -14.24609375 10.85546875 C-13.97676529 10.10405106 -13.70743683 9.35263336 -13.4299469 8.57844543 C-10.72454619 1.4100958 -7.78977324 -1.07445148 0 0 Z " fill="#272727" transform="translate(380,314)"/>
<path d="M0 0 C6.99694021 2.88109303 10.57344849 10.86037162 14.6171875 16.95703125 C18.51052506 22.81145026 22.42960825 28.64790691 26.3671875 34.47265625 C26.91060791 35.27668884 27.45402832 36.08072144 28.01391602 36.90911865 C30.23933191 40.20106227 32.46534751 43.49259896 34.69238281 46.78344727 C45.6022716 62.9077655 56.40068436 79.10572563 67.1875 95.3125 C67.17750725 93.61241035 67.17750725 93.61241035 67.16731262 91.87797546 C67.10656292 81.20973535 67.06155691 70.54153022 67.03206348 59.87315655 C67.01639101 54.38810214 66.99512382 48.90318709 66.96118164 43.41821289 C66.9286447 38.1273594 66.91065891 32.83664015 66.90286827 27.54569435 C66.89731457 25.52461444 66.88646989 23.50354208 66.87030983 21.48251915 C66.8486109 18.65704704 66.84552992 15.83213348 66.84692383 13.0065918 C66.836138 12.16646042 66.82535217 11.32632904 66.8142395 10.46073914 C66.84469086 4.77648588 66.84469086 4.77648588 68.48348522 2.55840778 C70.1875 1.3125 70.1875 1.3125 73.8125 1.5625 C77.1875 2.3125 77.1875 2.3125 78.1875 3.3125 C78.28719285 4.68435043 78.31824562 6.06127224 78.32121277 7.43673706 C78.32761024 8.77014633 78.32761024 8.77014633 78.33413696 10.13049316 C78.33345718 11.60479797 78.33345718 11.60479797 78.33276367 13.10888672 C78.33612228 14.13809235 78.3394809 15.16729797 78.34294128 16.22769165 C78.35248418 19.64920236 78.35439612 23.07066429 78.35546875 26.4921875 C78.3586792 28.8601178 78.36204311 31.22804791 78.36555481 33.59597778 C78.37155458 38.56773336 78.37339386 43.53947153 78.37280273 48.51123047 C78.37270111 54.89282173 78.3863502 61.27430174 78.40357494 67.65586662 C78.41467535 72.54908769 78.41672254 77.4422817 78.41619301 82.33551407 C78.41737621 84.6887157 78.42181689 87.04191796 78.42952538 89.39510727 C78.439285 92.68259287 78.43646304 95.96983498 78.43041992 99.25732422 C78.43603943 100.23614563 78.44165894 101.21496704 78.44744873 102.22344971 C78.44325424 103.11802887 78.43905975 104.01260803 78.43473816 104.93429565 C78.43528293 105.71191191 78.43582769 106.48952816 78.43638897 107.29070854 C78.1875 109.3125 78.1875 109.3125 76.1875 112.3125 C70.77793174 113.02195158 70.77793174 113.02195158 68.1875 112.3125 C63.9264449 108.51755436 60.9135056 104.2315077 57.80078125 99.4765625 C57.29886765 98.72015472 56.79695404 97.96374695 56.27983093 97.18441772 C54.68106173 94.7723603 53.0903732 92.3550994 51.5 89.9375 C50.45171284 88.35250667 49.40288903 86.76786813 48.35351562 85.18359375 C46.27884821 82.04999735 44.20703874 78.9145414 42.13745117 75.77758789 C38.2672013 69.91454938 34.36623873 64.07213342 30.46585083 58.22912598 C28.62648863 55.47137804 26.79070343 52.71125577 24.9549408 49.95111084 C23.0368956 47.0673971 21.11771742 44.18443823 19.19848633 41.30151367 C18.21989841 39.83107522 17.24171861 38.36036509 16.26391602 36.8894043 C14.82416388 34.72372272 13.38293076 32.55903337 11.94140625 30.39453125 C11.50703751 29.74039749 11.07266876 29.08626373 10.62513733 28.41230774 C8.55834097 25.31192187 6.4381366 22.2813278 4.1875 19.3125 C4.17941315 20.44811371 4.17132629 21.58372742 4.16299438 22.75375366 C4.08563006 33.43715336 3.99791569 44.12042417 3.89997292 54.80365562 C3.84995044 60.29648674 3.80362107 65.78929805 3.765625 71.28222656 C3.72884721 76.57964611 3.68250806 81.87690239 3.62943649 87.17418289 C3.61085251 89.19882987 3.59575949 91.22351189 3.58415604 93.24821091 C3.56736187 96.07628988 3.53834394 98.90399162 3.50634766 101.73193359 C3.50418747 102.57566025 3.50202728 103.4193869 3.49980164 104.28868103 C3.41560432 110.08439568 3.41560432 110.08439568 1.1875 112.3125 C-1.6233918 112.67287074 -3.15559926 112.81424378 -5.44842625 111.06297207 C-7.15234341 108.87638985 -7.19145732 107.74344196 -7.20018005 104.9924469 C-7.21008469 104.11061737 -7.21998932 103.22878784 -7.23019409 102.32023621 C-7.22569244 101.35547867 -7.2211908 100.39072113 -7.21655273 99.39672852 C-7.22341599 98.3785907 -7.23027924 97.36045288 -7.23735046 96.3114624 C-7.25568716 92.93796943 -7.25177105 89.56493848 -7.24609375 86.19140625 C-7.2506523 83.85114896 -7.25595689 81.51089302 -7.26197815 79.17063904 C-7.27092282 74.26206021 -7.2684707 69.35364397 -7.25854492 64.44506836 C-7.24705476 58.14866375 -7.26726112 51.8528199 -7.29646206 45.55648899 C-7.31479127 40.72239098 -7.31453809 35.88842815 -7.30882454 31.05430412 C-7.30867092 28.73262686 -7.31474881 26.41094067 -7.32711601 24.08929634 C-7.34196155 20.84505979 -7.33139552 17.60186939 -7.31420898 14.35766602 C-7.32387695 13.39493271 -7.33354492 12.4321994 -7.34350586 11.44029236 C-7.27144164 4.95761176 -7.27144164 4.95761176 -4.95692444 1.70420837 C-2.8125 0.3125 -2.8125 0.3125 0 0 Z " fill="#272727" transform="translate(861.8125,313.6875)"/>
<path d="M0 0 C6.2859148 1.31565659 9.74086729 9.07984903 13.07421875 14.125 C17.02604458 20.0789642 21.00577938 26.01326097 25.0078125 31.93359375 C25.55581512 32.74445435 26.10381775 33.55531494 26.66842651 34.39074707 C27.80192565 36.06768899 28.93553311 37.74455769 30.06924438 39.4213562 C40.08583571 54.23801354 50.07644812 69.07060106 59.96606445 83.97241211 C62.53563028 87.83860469 65.11185459 91.70035585 67.6875 95.5625 C67.67750725 93.86241035 67.67750725 93.86241035 67.66731262 92.12797546 C67.60656292 81.45973535 67.56155691 70.79153022 67.53206348 60.12315655 C67.51639101 54.63810214 67.49512382 49.15318709 67.46118164 43.66821289 C67.4286447 38.3773594 67.41065891 33.08664015 67.40286827 27.79569435 C67.39731457 25.77461444 67.38646989 23.75354208 67.37030983 21.73251915 C67.3486109 18.90704704 67.34552992 16.08213348 67.34692383 13.2565918 C67.336138 12.41646042 67.32535217 11.57632904 67.3142395 10.71073914 C67.34469086 5.02648588 67.34469086 5.02648588 68.98348522 2.80840778 C70.6875 1.5625 70.6875 1.5625 74.3125 1.8125 C77.6875 2.5625 77.6875 2.5625 78.6875 3.5625 C78.78719285 4.93435043 78.81824562 6.31127224 78.82121277 7.68673706 C78.82761024 9.02014633 78.82761024 9.02014633 78.83413696 10.38049316 C78.83345718 11.85479797 78.83345718 11.85479797 78.83276367 13.35888672 C78.83612228 14.38809235 78.8394809 15.41729797 78.84294128 16.47769165 C78.85248418 19.89920236 78.85439612 23.32066429 78.85546875 26.7421875 C78.8586792 29.1101178 78.86204311 31.47804791 78.86555481 33.84597778 C78.87155458 38.81773336 78.87339386 43.78947153 78.87280273 48.76123047 C78.87270111 55.14282173 78.8863502 61.52430174 78.90357494 67.90586662 C78.91467535 72.79908769 78.91672254 77.6922817 78.91619301 82.58551407 C78.91737621 84.9387157 78.92181689 87.29191796 78.92952538 89.64510727 C78.939285 92.93259287 78.93646304 96.21983498 78.93041992 99.50732422 C78.93603943 100.48614563 78.94165894 101.46496704 78.94744873 102.47344971 C78.94325424 103.36802887 78.93905975 104.26260803 78.93473816 105.18429565 C78.93528293 105.96191191 78.93582769 106.73952816 78.93638897 107.54070854 C78.6875 109.5625 78.6875 109.5625 76.6875 112.5625 C71.2496547 113.17645028 71.2496547 113.17645028 68.6875 112.5625 C65.13819948 109.45880303 62.64281307 105.74824311 60.08203125 101.83203125 C59.64581451 101.17348648 59.20959778 100.51494171 58.76016235 99.83644104 C57.82386285 98.42204325 56.88961937 97.00628267 55.95724487 95.58929443 C53.47844375 91.82273767 50.98407938 88.0664968 48.4921875 84.30859375 C47.99333542 83.55535828 47.49448334 82.8021228 46.98051453 82.02606201 C42.13624965 74.71629637 37.21353763 67.46196902 32.26948547 60.21931458 C26.37960534 51.58948276 20.51800373 42.94065457 14.66015625 34.2890625 C13.68690734 32.85195742 12.71364084 31.41486425 11.74035645 29.9777832 C9.38920219 26.50615896 7.03828349 23.03437532 4.6875 19.5625 C4.67941315 20.69811371 4.67132629 21.83372742 4.66299438 23.00375366 C4.58563006 33.68715336 4.49791569 44.37042417 4.39997292 55.05365562 C4.34995044 60.54648674 4.30362107 66.03929805 4.265625 71.53222656 C4.22884721 76.82964611 4.18250806 82.12690239 4.12943649 87.42418289 C4.11085251 89.44882987 4.09575949 91.47351189 4.08415604 93.49821091 C4.06736187 96.32628988 4.03834394 99.15399162 4.00634766 101.98193359 C4.00418747 102.82566025 4.00202728 103.6693869 3.99980164 104.53868103 C3.91560432 110.33439568 3.91560432 110.33439568 1.6875 112.5625 C-0.8125 112.8125 -0.8125 112.8125 -3.3125 112.5625 C-5.73838166 110.13661834 -5.56459215 109.5548374 -5.57319641 106.23535156 C-5.58028122 105.32676392 -5.58736603 104.41817627 -5.59466553 103.48205566 C-5.59218811 102.48250854 -5.58971069 101.48296143 -5.5871582 100.453125 C-5.59226913 99.40265991 -5.59738007 98.35219482 -5.60264587 97.26989746 C-5.61659057 93.78404099 -5.61558158 90.29838111 -5.61328125 86.8125 C-5.6171652 84.39876226 -5.62149924 81.98502521 -5.62626648 79.57128906 C-5.63373899 74.50713894 -5.63342973 69.44305852 -5.62817383 64.37890625 C-5.62237475 57.87499126 -5.63931603 51.37136062 -5.6625185 44.86749268 C-5.67721724 39.88165608 -5.67813287 34.8958886 -5.67500877 29.91003418 C-5.67552383 27.5113468 -5.68079582 25.11265574 -5.69082069 22.71398926 C-5.70309441 19.36642724 -5.69644815 16.01942736 -5.68481445 12.671875 C-5.69245819 11.67232788 -5.70010193 10.67278076 -5.70797729 9.64294434 C-5.70096298 8.73435669 -5.69394867 7.82576904 -5.6867218 6.88964844 C-5.68697341 5.70166656 -5.68697341 5.70166656 -5.68723011 4.48968506 C-5.56356917 3.85371399 -5.43990824 3.21774292 -5.3125 2.5625 C-2.3125 0.5625 -2.3125 0.5625 0 0 Z " fill="#242424" transform="translate(639.3125,313.4375)"/>
<path d="M0 0 C0.66 0 1.32 0 2 0 C4.87414965 7.76912014 7.74307657 15.54013995 10.60533142 23.31364918 C11.93451357 26.92302675 13.26549396 30.53171984 14.60058594 34.13891602 C15.88863263 37.61920657 17.17195277 41.10120601 18.45199585 44.58444786 C18.94151404 45.91394873 19.43274041 47.24282193 19.9256897 48.57105446 C20.61511684 50.42957669 21.29794784 52.29054178 21.98046875 54.15161133 C22.37129639 55.21084305 22.76212402 56.27007477 23.16479492 57.36140442 C24 60 24 60 24 63 C8.49 63 -7.02 63 -23 63 C-22.35222396 59.76111981 -21.80891608 57.19814534 -20.6875 54.19921875 C-20.42106689 53.48113037 -20.15463379 52.76304199 -19.88012695 52.02319336 C-19.58968506 51.25241455 -19.29924316 50.48163574 -19 49.6875 C-18.69602295 48.87224854 -18.3920459 48.05699707 -18.07885742 47.21704102 C-17.41416699 45.4363642 -16.74766362 43.65636334 -16.07958984 41.87695312 C-14.94052074 38.84149624 -13.80779517 35.80371954 -12.67578125 32.765625 C-11.88830235 30.65614489 -11.10054587 28.54676837 -10.3125 26.4375 C-9.76045898 24.95866333 -9.76045898 24.95866333 -9.19726562 23.44995117 C-6.87891641 17.26612014 -4.47407083 11.12304589 -2 5 C-1.33280488 3.33354481 -0.66600067 1.66693291 0 0 Z " fill="#FAF9FA" transform="translate(562,324)"/>
<path d="M0 0 C0.66 0 1.32 0 2 0 C2.21092285 0.58265625 2.4218457 1.1653125 2.63916016 1.765625 C7.75638811 15.90610492 7.75638811 15.90610492 13 30 C15.48189551 36.59547198 17.94060374 43.19934257 20.375 49.8125 C20.73335938 50.77478516 21.09171875 51.73707031 21.4609375 52.72851562 C21.9559375 54.07913086 21.9559375 54.07913086 22.4609375 55.45703125 C22.90638916 56.6632312 22.90638916 56.6632312 23.36083984 57.89379883 C24 60 24 60 24 63 C8.49 63 -7.02 63 -23 63 C-22.31481133 59.57405664 -21.67471827 56.83867386 -20.48120117 53.64379883 C-20.17385544 52.81556107 -19.8665097 51.9873233 -19.54985046 51.13398743 C-19.2175795 50.25059189 -18.88530853 49.36719635 -18.54296875 48.45703125 C-18.02661613 47.07157356 -18.02661613 47.07157356 -17.49983215 45.65812683 C-16.77110435 43.70493698 -16.0405675 41.75242126 -15.30834961 39.80053711 C-14.1984725 36.84175123 -13.0938447 33.88105018 -11.99023438 30.91992188 C-11.27895485 29.01550956 -10.56737571 27.11120911 -9.85546875 25.20703125 C-9.52927048 24.33375687 -9.2030722 23.46048248 -8.86698914 22.56074524 C-6.65743571 16.67423363 -4.35240856 10.83073689 -2 5 C-1.33287643 3.33351617 -0.66608863 1.66689777 0 0 Z " fill="#F9F9F9" transform="translate(377,324)"/>
<path d="M0 0 C0.66 0 1.32 0 2 0 C3.58670696 4.2487479 5.16872983 8.49922598 6.75 12.75 C7.1934375 13.93722656 7.636875 15.12445313 8.09375 16.34765625 C10.56820005 23.00683799 12.91485134 29.6880384 15.13330078 36.43652344 C16.14719134 39.43535466 17.30515777 42.34524898 18.5625 45.25 C24 58.07175926 24 58.07175926 24 63 C8.49 63 -7.02 63 -23 63 C-21.02544565 56.41815216 -18.99300057 50.02935545 -16.56640625 43.625 C-16.24719711 42.77502441 -15.92798798 41.92504883 -15.59910583 41.04931641 C-14.92919053 39.26732104 -14.25771055 37.48591316 -13.5847168 35.70507812 C-12.56544014 33.00778046 -11.5508502 30.30875749 -10.53710938 27.609375 C-4.73719215 12.19039981 -4.73719215 12.19039981 -1.70678711 4.77734375 C-1.08192013 3.20600296 -0.53474953 1.60424859 0 0 Z " fill="#FAFAFA" transform="translate(783,324)"/>
<path d="M0 0 C0.8768042 -0.00918457 1.7536084 -0.01836914 2.65698242 -0.02783203 C3.49076416 -0.02380371 4.3245459 -0.01977539 5.18359375 -0.015625 C6.30399048 -0.01224121 6.30399048 -0.01224121 7.44702148 -0.00878906 C9.84035957 0.2839909 11.47964454 1.06349996 13.5625 2.25 C12.85867188 2.2593457 12.15484375 2.26869141 11.4296875 2.27832031 C-3.61147729 2.52867913 -17.41420698 3.10947737 -31.609375 8.44140625 C-34.46613391 9.25818677 -35.71206756 9.29824324 -38.4375 8.25 C-32.8423651 5.93088976 -27.33195639 3.69776122 -21.4375 2.25 C-20.72078125 2.064375 -20.0040625 1.87875 -19.265625 1.6875 C-12.85202167 0.25340236 -6.54455987 0.03874952 0 0 Z " fill="#729DB6" transform="translate(512.4375,215.75)"/>
<path d="M0 0 C-2.61133436 2.61133436 -4.65858709 2.77944079 -8.25 3.5625 C-9.36890625 3.81128906 -10.4878125 4.06007812 -11.640625 4.31640625 C-14.75234974 4.94960605 -17.86423191 5.5011278 -21 6 C-17.73508439 3.21521904 -14.58430184 2.00526708 -10.5 0.75 C-9.3759375 0.39421875 -8.251875 0.0384375 -7.09375 -0.328125 C-4.15972184 -0.96531293 -2.75336094 -1.05275565 0 0 Z " fill="#6993B1" transform="translate(495,219)"/>
<path d="M0 0 C0.66 0 1.32 0 2 0 C9.84079602 16.47761194 9.84079602 16.47761194 8 22 C7.04027826 19.45884998 6.08218506 16.91710543 5.125 14.375 C4.85558594 13.66214844 4.58617187 12.94929688 4.30859375 12.21484375 C2.7865816 8.16851878 1.33627828 4.11262344 0 0 Z " fill="#6594AD" transform="translate(439,361)"/>
<path d="M0 0 C1.69898948 4.99294868 -0.05773169 9.28530031 -2 14 C-4.1875 16.625 -4.1875 16.625 -6 18 C-4.23536928 11.89262558 -2.30442525 5.92566493 0 0 Z " fill="#719BB1" transform="translate(506,311)"/>
<path d="M0 0 C0.99 0.33 1.98 0.66 3 1 C4.0625 3.25 4.0625 3.25 5 6 C5.37125 6.825 5.7425 7.65 6.125 8.5 C7.05688223 11.16252066 7.15993416 13.20115212 7 16 C5 15 5 15 3.7109375 11.62109375 C3.25801276 10.22901623 2.81302387 8.83433776 2.375 7.4375 C2.14554687 6.72658203 1.91609375 6.01566406 1.6796875 5.28320312 C1.11305792 3.52429047 0.55565742 1.76240961 0 0 Z " fill="#6396AF" transform="translate(426,327)"/>
<path d="M0 0 C1.28132812 0.00902344 2.56265625 0.01804687 3.8828125 0.02734375 C4.87023437 0.03894531 5.85765625 0.05054688 6.875 0.0625 C6.875 0.3925 6.875 0.7225 6.875 1.0625 C5.89917969 1.19527344 4.92335938 1.32804687 3.91796875 1.46484375 C2.00951172 1.72974609 2.00951172 1.72974609 0.0625 2 C-1.83435547 2.26103516 -1.83435547 2.26103516 -3.76953125 2.52734375 C-7.10821703 2.96642455 -7.10821703 2.96642455 -10.125 4.0625 C-9.795 3.0725 -9.465 2.0825 -9.125 1.0625 C-6.12186252 -0.43906874 -3.33432478 -0.03031204 0 0 Z " fill="#E0F5FB" transform="translate(539.125,274.9375)"/>
<path d="M0 0 C0.33 0 0.66 0 1 0 C1.33 4.29 1.66 8.58 2 13 C0.35 11.35 -1.3 9.7 -3 8 C-2.01 7.67 -1.02 7.34 0 7 C0 4.69 0 2.38 0 0 Z " fill="#6996AE" transform="translate(603,290)"/>
<path d="M0 0 C0 0.99 0 1.98 0 3 C-0.66 3 -1.32 3 -2 3 C-2.226875 3.639375 -2.45375 4.27875 -2.6875 4.9375 C-4 7 -4 7 -6.625 7.75 C-7.800625 7.87375 -7.800625 7.87375 -9 8 C-6.14723863 5.06799526 -3.34920216 2.35684596 0 0 Z " fill="#6A98B0" transform="translate(458,233)"/>
<path d="M0 0 C2 1 2 1 2.8515625 3.28515625 C3.10679687 4.20167969 3.36203125 5.11820312 3.625 6.0625 C3.88539063 6.98160156 4.14578125 7.90070313 4.4140625 8.84765625 C4.60742188 9.55792969 4.80078125 10.26820313 5 11 C4.34 11 3.68 11 3 11 C0 4.5 0 4.5 0 0 Z " fill="#5E94AB" transform="translate(456,379)"/>
<path d="M0 0 C1.60461448 4.01153621 0.45438973 7.07314774 -1 11 C-1.99 11.66 -2.98 12.32 -4 13 C-3.52140759 11.39566191 -3.04210442 9.79153584 -2.5625 8.1875 C-2.29566406 7.29417969 -2.02882813 6.40085937 -1.75390625 5.48046875 C-1.19612127 3.64526945 -0.60655425 1.81966274 0 0 Z " fill="#6B97AE" transform="translate(499,330)"/>
<path d="M0 0 C0.8971875 0.309375 0.8971875 0.309375 1.8125 0.625 C-1.98442186 3.45061627 -4.37319279 5.19138908 -9.1875 4.625 C-2.52118644 -0.43220339 -2.52118644 -0.43220339 0 0 Z " fill="#6893AE" transform="translate(471.1875,226.375)"/>
<path d="M0 0 C0.33 0 0.66 0 1 0 C0.67 2.97 0.34 5.94 0 9 C-1.32 9.33 -2.64 9.66 -4 10 C-2.85408232 6.56224696 -1.44249373 3.3240073 0 0 Z " fill="#6A9AB7" transform="translate(472,404)"/>
<path d="M0 0 C1.47177418 3.82661288 0.57016757 6.31010622 -1 10 C-1.96715918 11.03179606 -2.96225307 12.0392288 -4 13 C-3.52140759 11.39566191 -3.04210442 9.79153584 -2.5625 8.1875 C-2.29566406 7.29417969 -2.02882813 6.40085937 -1.75390625 5.48046875 C-1.19612127 3.64526945 -0.60655425 1.81966274 0 0 Z " fill="#739DB3" transform="translate(511,297)"/>
<path d="M0 0 C0.33 0 0.66 0 1 0 C1.25 3.25 1.25 3.25 1 7 C-0.32 8.32 -1.64 9.64 -3 11 C-2.01 7.37 -1.02 3.74 0 0 Z " fill="#D7ECF4" transform="translate(496,367)"/>
<path d="M0 0 C0.99 0.33 1.98 0.66 3 1 C3 2.32 3 3.64 3 5 C2.34 5 1.68 5 1 5 C1 4.34 1 3.68 1 3 C-0.65 3.33 -2.3 3.66 -4 4 C-2.68 2.68 -1.36 1.36 0 0 Z " fill="#76A1BB" transform="translate(543,217)"/>
<path d="M0 0 C0.33 0 0.66 0 1 0 C1.17942163 3.94727588 1.09350689 6.5980513 -1 10 C-1.66 10 -2.32 10 -3 10 C-2.01 6.7 -1.02 3.4 0 0 Z " fill="#DEF4FA" transform="translate(482,406)"/>
<path d="M0 0 C2.3125 -0.25 2.3125 -0.25 5 0 C6.97610386 2.04424538 8 3.1176825 8 6 C7.34 6 6.68 6 6 6 C6 5.34 6 4.68 6 4 C5.34 4 4.68 4 4 4 C4 3.01 4 2.02 4 1 C2.68 0.67 1.36 0.34 0 0 Z " fill="#6892AE" transform="translate(427,314)"/>
</svg>
